:version 1.10
:name ASF
:units
  mass 1
  length 1
  angle deg
:documentation
  ASF file generated by Kaydara
:root
  axis xyz
  order  tx ty tz rx ry rz
  position 0 0 0
  orientation 0 0 0
:bonedata
  begin
    id 1
    name RightUpLegDummy
    direction -1 2.30186e-007 8.31532e-007
    length 4.46685
    axis 0 0 0 xyz
  end
  begin
    id 2
    name RightUpLeg
    direction -2.30187e-007 -1 1.24343e-010
    length 16.4045
    axis -3.49089 -0.000906625 0.000286804 xyz
    dof rx ry rz
  end
  begin
    id 3
    name RightLeg
    direction -2.30181e-007 -1 -4.17157e-009
    length 17.5097
    axis 3.68512 0.0193738 -0.131023 xyz
    dof rx ry rz
  end
  begin
    id 4
    name RightFoot
    direction 8.31421e-007 -4.51202e-011 1
    length 6.49508
    axis 4.81691e-005 -0.120479 -0.188788 xyz
    dof rx ry rz
  end
  begin
    id 5
    name RightToes
    direction 0.00124746 -0.014064 0.9999
    length 3.85082
    axis 0.000481921 0.542163 -0.142578 xyz
    dof rx ry rz
  end
  begin
    id 6
    name SpineDummy
    direction 0.0717043 0.9409 -0.331007
    length 10.0032
    axis 0 0 0 xyz
  end
  begin
    id 7
    name Spine
    direction 2.30186e-007 1 4.58806e-011
    length 9.84055
    axis -0.001389 0.000121418 2.40972e-006 xyz
    dof rx ry rz
  end
  begin
    id 8
    name Spine1
    direction 0 0 0
    length 0
    axis -0.001389 0.000121451 1.30017e-006 xyz
    dof rx ry rz
  end
  begin
    id 9
    name HEadDummy
    direction -0.00347485 0.950688 -0.310128
    length 8.00997
    axis -0.001389 0.000121451 1.30017e-006 xyz
  end
  begin
    id 10
    name HEad
    direction -0.0222688 0.980941 0.193023
    length 5.12695
    axis -0.001389 0.000121451 1.30017e-006 xyz
    dof rx ry rz
  end
  begin
    id 11
    name LeftShoulder1Dummy
    direction 0.988871 0.146793 -0.0242004
    length 3.5792
    axis -0.001389 0.000121451 1.30017e-006 xyz
  end
  begin
    id 12
    name LeftShoulder1
    direction 0.993832 0.108932 0.020779
    length 4.16823
    axis -0.001389 0.000121451 1.30017e-006 xyz
    dof rx ry rz
  end
  begin
    id 13
    name LeftArm
    direction 1 3.44807e-006 -8.31404e-007
    length 9.91437
    axis -23.1894 0.134784 0.967509 xyz
    dof rx ry rz
  end
  begin
    id 14
    name LeftForeArm
    direction 1 3.44842e-006 -8.31581e-007
    length 9.08575
    axis -9.91835 -0.06569 -0.177793 xyz
    dof rx ry rz
  end
  begin
    id 15
    name LeftHand
    direction 0.992938 -0.0411636 0.11126
    length 5.32135
    axis -0.00960232 -0.00340091 0.185173 xyz
    dof rx ry rz
  end
  begin
    id 16
    name RightShoulderDummy
    direction -0.988871 0.146793 -0.0241962
    length 3.5792
    axis -0.001389 0.000121451 1.30017e-006 xyz
  end
  begin
    id 17
    name RightShoulder
    direction -0.993832 0.108933 0.0207785
    length 4.16823
    axis 0.215806 0.000203643 -0.0068026 xyz
    dof rx ry rz
  end
  begin
    id 18
    name RightArm
    direction -1 3.90912e-006 8.31284e-007
    length 9.91437
    axis -23.2009 -0.134239 -0.964101 xyz
    dof rx ry rz
  end
  begin
    id 19
    name RightForeArm
    direction -1 3.90882e-006 8.31502e-007
    length 9.08575
    axis -9.92322 0.0658061 0.178867 xyz
    dof rx ry rz
  end
  begin
    id 20
    name RightHand
    direction -0.992843 -0.0414603 0.112003
    length 5.28593
    axis -0.00960638 0.00330671 -0.185228 xyz
    dof rx ry rz
  end
  begin
    id 21
    name LeftUpLegDummy
    direction 1 -2.30186e-007 -8.31532e-007
    length 4.46685
    axis 0 0 0 xyz
  end
  begin
    id 22
    name LeftUpLeg
    direction -2.30187e-007 -1 6.00931e-010
    length 16.4045
    axis -3.48766 0.00143442 -0.000524262 xyz
    dof rx ry rz
  end
  begin
    id 23
    name LeftLeg
    direction -2.30187e-007 -1 1.6669e-009
    length 17.5097
    axis 3.68178 -0.00654042 -0.000285133 xyz
    dof rx ry rz
  end
  begin
    id 24
    name LeftFoot
    direction 8.31532e-007 -4.54478e-011 1
    length 6.49508
    axis 1.87233e-006 4.66016e-005 -8.6538e-006 xyz
    dof rx ry rz
  end
  begin
    id 25
    name LeftToes
    direction 0.00818058 -0.00485161 0.999955
    length 3.85048
    axis 1.06247e-005 4.65869e-005 -8.65513e-006 xyz
    dof rx ry rz
  end
:hierarchy
  begin
    root RightUpLegDummy SpineDummy LeftUpLegDummy
    RightUpLegDummy RightUpLeg
    RightUpLeg RightLeg
    RightLeg RightFoot
    RightFoot RightToes
    SpineDummy Spine
    Spine Spine1
    Spine1 HEadDummy LeftShoulder1Dummy RightShoulderDummy
    HEadDummy HEad
    LeftShoulder1Dummy LeftShoulder1
    LeftShoulder1 LeftArm
    LeftArm LeftForeArm
    LeftForeArm LeftHand
    RightShoulderDummy RightShoulder
    RightShoulder RightArm
    RightArm RightForeArm
    RightForeArm RightHand
    LeftUpLegDummy LeftUpLeg
    LeftUpLeg LeftLeg
    LeftLeg LeftFoot
    LeftFoot LeftToes
  end

:SAMPLES-PER-SECOND 30
:FULLY-SPECIFIED
:DEGREES
17
root  -43.428 24.405 -43.6273 -165.53 35.3313 158.127
RightUpLeg  -99.9267 -13.189 15.629
RightLeg  73.0438 -4.21762 -11.2436
RightFoot  -13.9903 0.158546 1.66973
RightToes  15.4824 0.0138965 0.149892
Spine  19.1916 3.87208 8.12701
Spine1  30.0217 3.83882 10.0431
HEad  -18.9588 -33.056 38.9826
LeftShoulder1  0 -2.42657e-020 -4.95415e-022
LeftArm  -6.35668 -48.7705 -94.3399
LeftForeArm  -162.603 -40.2527 -8.07916
LeftHand  10.4543 -27.4502 -41.4482
RightShoulder  0 2.42657e-020 1.07489e-018
RightArm  -50.2428 51.9218 31.0823
RightForeArm  81.1374 19.506 3.47316
RightHand  -6.70057 21.4873 -33.9321
LeftUpLeg  -8.87128 9.40394 6.3458
LeftLeg  55.5326 -12.9931 -15.9814
LeftFoot  15.35 1.02249 -7.5766
LeftToes  -65.6012 1.18758e-006 1.19596e-007
18
root  -41.837 24.0243 -44.7616 -165.839 38.916 157.428
RightUpLeg  -99.1895 -10.074 15.2684
RightLeg  78.023 -3.05408 -11.0564
RightFoot  -18.4899 0.329845 2.40388
RightToes  22.623 0.0111554 0.219509
Spine  20.0049 4.33917 7.66816
Spine1  30.9411 5.02294 8.98514
HEad  -14.7086 -31.8024 35.7724
LeftShoulder1  0 -2.42657e-020 -4.95415e-022
LeftArm  -1.51841 -49.1978 -99.6998
LeftForeArm  -161.363 -38.6498 -7.60949
LeftHand  10.2709 -27.1035 -41.2755
RightShoulder  0 2.42657e-020 1.07489e-018
RightArm  -65.4519 60.5139 33.9792
RightForeArm  80.5078 9.92616 1.67045
RightHand  -3.3325 18.2245 -20.1963
LeftUpLeg  -14.1371 4.51733 5.81769
LeftLeg  66.8631 -15.1407 -27.335
LeftFoot  22.9873 3.19963 -15.6418
LeftToes  -46.5789 1.18758e-006 1.19596e-007
19
root  -40.1513 23.7608 -45.7665 -166.448 42.6638 157.419
RightUpLeg  -96.4322 -7.07479 15.5486
RightLeg  81.6105 -2.13949 -10.3238
RightFoot  -23.2617 0.499419 2.80364
RightToes  25.4121 0.00872875 0.246437
Spine  21.2401 4.31481 7.46169
Spine1  32.5655 5.08923 8.29756
HEad  -12.9938 -29.4352 33.937
LeftShoulder1  0 -2.42657e-020 -4.95415e-022
LeftArm  2.79281 -50.4347 -102.214
LeftForeArm  -161.361 -37.7228 -7.34785
LeftHand  10.3209 -27.2849 -41.1989
RightShoulder  0 2.42657e-020 1.07489e-018
RightArm  -92.1597 64.9845 31.5573
RightForeArm  70.4817 -0.199537 -0.093054
RightHand  -0.501253 9.30511 -5.78746
LeftUpLeg  -20.243 -0.502547 5.45212
LeftLeg  75.9051 -11.763 -32.468
LeftFoot  14.3183 1.50658 -11.9517
LeftToes  -39.7969 1.18758e-006 1.19596e-007
20
root  -38.2846 23.7423 -46.5695 -167.808 46.1485 157.495
RightUpLeg  -91.2151 -5.16228 16.6436
RightLeg  83.2394 -1.45776 -8.37407
RightFoot  -28.4761 0.572024 2.63166
RightToes  26.4475 0.00676204 0.256374
Spine  22.5302 3.52248 6.80828
Spine1  34.041 2.7021 8.60508
HEad  -12.1114 -26.7223 33.9761
LeftShoulder1  0 -2.42657e-020 -4.95415e-022
LeftArm  5.11463 -53.1952 -102.662
LeftForeArm  -164.312 -35.5978 -6.77328
LeftHand  10.4357 -26.9443 -42.1126
RightShoulder  0 2.42657e-020 1.07489e-018
RightArm  -81.9285 65.3891 42.5271
RightForeArm  64.8169 -0.189382 -0.0771678
RightHand  -0.124549 10.212 -1.02447
LeftUpLeg  -26.7745 -1.88093 6.36277
LeftLeg  81.4617 -4.99616 -21.9355
LeftFoot  8.85268 0.466283 -6.01819
LeftToes  -44.3257 1.18758e-006 1.19596e-007
21
root  -36.4111 23.9424 -47.3047 -169.437 49.592 156.559
RightUpLeg  -85.8243 -4.96194 18.1047
RightLeg  83.422 -0.796181 -4.92687
RightFoot  -32.3513 0.267695 1.30044
RightToes  27.8753 0.00337699 0.270016
Spine  22.8858 2.00985 5.16039
Spine1  34.3138 -0.602279 7.40981
HEad  -9.51827 -22.7612 32.5889
LeftShoulder1  0 -2.42657e-020 -4.95415e-022
LeftArm  -0.473259 -55.4458 -97.7638
LeftForeArm  -172.117 -34.9201 -6.6021
LeftHand  10.9983 -29.0031 -41.2111
RightShoulder  0 2.42657e-020 1.07489e-018
RightArm  -55.8917 62.2592 62.4861
RightForeArm  60.6049 2.20697 0.352032
RightHand  0.441507 15.4991 3.61498
LeftUpLeg  -34.8561 -2.66451 7.03317
LeftLeg  86.3437 -1.30265 -10.0639
LeftFoot  -0.00727041 -0.000144808 -2.28102
LeftToes  -38.5783 1.18758e-006 1.19596e-007
22
root  -34.5014 24.2469 -47.9142 -170.705 52.9596 155.963
RightUpLeg  -79.8679 -6.0899 20.2438
RightLeg  82.3452 -0.01401 -0.549937
RightFoot  -35.348 -0.40901 -0.906032
RightToes  29.3385 0.000323989 0.283913
Spine  23.0526 0.0953099 3.35217
Spine1  34.5932 -4.44441 5.85611
HEad  -7.20647 -18.1206 30.4196
LeftShoulder1  0 -2.42657e-020 -4.95415e-022
LeftArm  -12.1168 -58.5032 -88.1357
LeftForeArm  -177.511 -33.1187 -6.15136
LeftHand  11.5349 -29.8579 -41.8738
RightShoulder  0 2.42657e-020 1.07489e-018
RightArm  -48.5565 58.4356 76.9735
RightForeArm  70.6135 3.41947 0.540758
RightHand  -0.474226 22.3505 -2.03067
LeftUpLeg  -44.1533 -3.72221 8.51068
LeftLeg  89.6731 -0.165603 -2.45975
LeftFoot  -8.70922 -0.130996 -1.72014
LeftToes  -28.2609 1.18758e-006 1.19596e-007
23
root  -32.5355 24.6536 -48.4723 -173.187 57.6453 154.189
RightUpLeg  -72.9648 -6.5047 21.0326
RightLeg  80.429 0.917238 3.49637
RightFoot  -36.8466 -1.17988 -3.16355
RightToes  30.1201 -0.00148904 0.2913
Spine  23.2127 -1.79186 0.53419
Spine1  35.2213 -7.99616 3.39576
HEad  -5.69782 -13.4723 29.4553
LeftShoulder1  0 -2.42657e-020 -4.95415e-022
LeftArm  -30.0015 -60.3914 -70.9106
LeftForeArm  -177.719 -30.4459 -5.5068
LeftHand  11.3995 -29.8543 -41.4294
RightShoulder  0 2.42657e-020 1.07489e-018
RightArm  -32.1732 50.3148 87.8174
RightForeArm  55.0173 10.4461 1.82865
RightHand  -0.577506 23.7283 -2.37909
LeftUpLeg  -53.7153 -3.99979 9.57617
LeftLeg  90.4387 0.127615 2.1298
LeftFoot  -15.014 -0.306986 -2.32928
LeftToes  -24.2262 1.18758e-006 1.19596e-007
